<svg xmlns="http://www.w3.org/2000/svg" viewBox="0 0 548.33 880.87"><defs><style>.cls-1{fill:#a25c04;}.cls-2{fill:#ce7b25;}.cls-3{fill:#d26f20;}.cls-4{fill:#893505;}.cls-5{fill:#ab5d14;}.cls-6{fill:#754c24;}.cls-7{fill:#8c6239;}.cls-8{stroke:gray;stroke-width:4px;}.cls-8,.cls-9{stroke-miterlimit:10;}.cls-9{fill:#e3a23b;stroke:#754c24;}</style></defs><g id="Layer_2" data-name="Layer 2"><g id="Layer_2-2" data-name="Layer 2"><polygon class="cls-1" points="540.14 880.87 545.59 872.15 545.59 815.36 501.6 796.43 490.6 799.71 540.14 880.87"/><path class="cls-2" d="M1,747.05s212.45,7.27,239.09,3.91,129.55-1.51,129.55-1.51l171.06-2.4v37.69l-48.86,14.83,48.86,22.25v59H1V844.36l28-9.6L1,828.67v-46.5l9.33-4.39L1,769.33Z"/><path class="cls-1" d="M8,743.46l-7,5.31c120.08,7.17,419.88.58,539.7,0v37.68l7.41-7.23V743.46Z"/><path class="cls-3" d="M127.85,792c-.93.32-20.3,7.16-24,22.91-.47,2-2.89,12.39,4,18.43,5.69,5,14.12,3.85,14.65,6.71.73,3.87-14.74,6.17-16,13.4-.71,4.18,3.56,8.51,7.33,10.62,11.76,6.58,30.9-1.63,38.62-4.47,66-25.2,147.34,29.73,178.49-11.73,2.3-3.16,16.6-22.73,4.66-36.31-8-9.09-24.55-11.89-35.3-8.38-6.23,2-6.67,4.93-12,5.58-10.91,1.33-15.14-10.16-27.31-14-20.14-6.29-33.66,17.34-59.94,14-14.88-1.91-13.73-9.89-37.29-15.64C153.14,790.54,141,787.58,127.85,792Z"/><path class="cls-4" d="M399.93,788.16a124.89,124.89,0,0,1,40.63-3.91c22,1.68,40,2.8,36.63,5.59s-22.65,4.47-22.65,4.47H425.2Z"/><path class="cls-4" d="M64.3,819.21a124.89,124.89,0,0,1,40.63-3.91c22,1.68,40,2.8,36.63,5.59s-22.65,4.47-22.65,4.47H89.57Z"/><path class="cls-4" d="M67.3,776.11c9.15.27,18.32.54,27.46,0,8.64-.48,17.2-2,25.85-2.29a48.28,48.28,0,0,1,14.32,1.48,1.5,1.5,0,0,0,.8-2.89c-8.36-2.3-17.07-1.71-25.59-.78a243.62,243.62,0,0,1-27,1.77c-5.29,0-10.57-.16-15.85-.31-1.93-.06-1.92,2.94,0,3Z"/><path class="cls-5" d="M206.43,781.88c10.42-5.64,20.13-9.59,31.82-5.41,21,2.82,42.54,4.21,63.54.94"/><path class="cls-5" d="M35.45,814.34q22.1.49,44.2.11"/><path class="cls-5" d="M184.58,864.08c31.22,3.69,63.18,4.38,94.33-.78"/><path class="cls-6" d="M187.81,844.44a92.94,92.94,0,0,1,36.41-5.68,159.72,159.72,0,0,1,19.11,2.43,175.79,175.79,0,0,0,20.08,2.3,146.21,146.21,0,0,0,22.34-.64,3.09,3.09,0,0,0,3-3,3,3,0,0,0-3-3,149.59,149.59,0,0,1-39.87-1.29c-6.58-1.08-13.16-2.28-19.83-2.7a99.25,99.25,0,0,0-39.83,5.79,3.09,3.09,0,0,0-2.1,3.69,3,3,0,0,0,3.69,2.1Z"/><path class="cls-4" d="M248.08,816.4a64.5,64.5,0,0,1,29.31-2.16c9.79,1.45,19.24,4.61,28.38,8.33,1.79.72,2.56-2.18.8-2.9-14.48-5.88-30.08-10.43-45.86-8.92a62.84,62.84,0,0,0-13.43,2.76c-1.83.59-1.05,3.49.8,2.89Z"/><path class="cls-4" d="M201,794.38A124.38,124.38,0,0,0,152.49,782c-8.94-.37-17.75.68-26.61,1.71q-13.57,1.57-27.22,2.29-15.39.81-30.8.49c-1.93,0-1.93,3,0,3a428.9,428.9,0,0,0,53.87-2.32c8.8-.94,17.57-2.28,26.45-2.27a114.74,114.74,0,0,1,24.63,2.78A125.11,125.11,0,0,1,199.47,797c1.73.83,3.26-1.76,1.51-2.59Z"/><path class="cls-4" d="M12.31,779.25a170.22,170.22,0,0,0,35.53-3.47c1.89-.39,1.09-3.28-.8-2.89a165.92,165.92,0,0,1-34.73,3.36,1.5,1.5,0,0,0,0,3Z"/><path class="cls-4" d="M23.88,761.86q33.14,1.65,66.3,2.6,9.46.28,18.95.49c1.93,0,1.93-3,0-3Q76,761.2,42.82,759.74q-9.48-.4-18.94-.88c-1.93-.1-1.92,2.9,0,3Z"/><path class="cls-4" d="M33.29,857.54A154.35,154.35,0,0,0,51,861a111.66,111.66,0,0,0,18.1.63c12.34-.43,24.68-1.38,37-2.11l21-1.23c1.92-.12,1.93-3.12,0-3l-36.91,2.18c-12,.7-24.06,2-36,.88a133.59,133.59,0,0,1-20-3.75c-1.87-.46-2.67,2.43-.8,2.9Z"/><path class="cls-4" d="M281.73,800.23a283.47,283.47,0,0,1,95.86,3.12c15.4,3.15,30.56,7.3,45.89,10.71a295.68,295.68,0,0,0,47.75,6.66c9.12.51,18.26.78,27.39,1,8.77.17,17.62,0,26.2-2,1.88-.45,1.09-3.34-.79-2.89-7.7,1.83-15.63,2.06-23.51,2q-12.19-.16-24.37-.74c-8.18-.37-16.36-.94-24.48-1.92-8-1-15.84-2.41-23.67-4.08-15.36-3.27-30.52-7.43-45.88-10.73a294.9,294.9,0,0,0-47.44-6.35,286.71,286.71,0,0,0-53.75,2.45c-1.9.26-1.09,3.15.8,2.89Z"/><path class="cls-4" d="M527.64,832.53a190.24,190.24,0,0,1-49.89-3.43c-1.89-.39-2.69,2.5-.8,2.89a192.89,192.89,0,0,0,50.69,3.54c1.92-.12,1.93-3.12,0-3Z"/><path class="cls-4" d="M490.08,848.88c-30.12-4-60.15-10.29-90.66-10.07C370.18,839,341.9,847.45,313,851c-16.13,2-32.54,2.31-48.48-1.18-1.88-.41-2.69,2.48-.8,2.89,28.7,6.29,57.81.4,86.16-4.86,14.29-2.65,28.67-5.21,43.21-5.86,15.11-.67,30.3.61,45.29,2.46,17,2.11,33.89,5.08,50.87,7.36a1.55,1.55,0,0,0,1.84-1,1.5,1.5,0,0,0-1-1.84Z"/><path class="cls-4" d="M312.18,832.43a243,243,0,0,1,54.72-10.19,444.15,444.15,0,0,1,55.93-.32c10.46.51,20.9,1.24,31.33,2.05,1.93.15,1.92-2.85,0-3-18.69-1.44-37.42-2.67-56.18-2.76a328.68,328.68,0,0,0-55.8,4,222.83,222.83,0,0,0-30.8,7.33c-1.83.58-1.05,3.48.8,2.89Z"/><path class="cls-7" d="M495.17,762.34c-19.89,5.73-40.43,8.73-61.06,10s-41.53.86-62.27-.17c-11.62-.57-23.23-1.33-34.84-2.11-1.93-.13-1.92,2.87,0,3,20.8,1.39,41.62,2.75,62.48,3s41.58-.55,62.15-3.53a255.91,255.91,0,0,0,34.33-7.3,1.5,1.5,0,0,0-.79-2.9Z"/><path class="cls-5" d="M462.58,800.79q-17.86-2.46-35.83-4.36"/><path class="cls-5" d="M352.83,866.15a251.78,251.78,0,0,1,34.82-6.52,65.21,65.21,0,0,1,12.72-.53A87.58,87.58,0,0,1,411,860.92a200.52,200.52,0,0,0,51.62,3.62"/><path class="cls-8" d="M41.39,769.4c0,5.45-5.27,9.87-11.77,9.87-15.62-.53-15.62-19.21,0-19.75C36.12,759.52,41.39,764,41.39,769.4Z"/><path class="cls-8" d="M523,769.56c0,5.45-5.27,9.88-11.77,9.88-15.62-.54-15.62-19.22,0-19.76C517.75,759.68,523,764.11,523,769.56Z"/><polygon class="cls-1" points="540.37 579.96 545.82 571.25 545.82 514.45 501.83 495.53 490.83 498.8 540.37 579.96"/><path class="cls-2" d="M1.22,447s212.45,7.26,239.09,3.91,129.55-1.52,129.55-1.52L540.92,447v37.68l-48.87,14.83,48.87,22.25v59.05H1.22V544.31l28-9.6-28-6.09v-46.5l9.32-4.39-9.32-8.44Z"/><path class="cls-1" d="M8.21,443.41l-7,5.31c120.07,7.17,419.87.58,539.7,0v37.69l7.41-7.24V443.41Z"/><path class="cls-3" d="M128.09,492c-.94.31-20.31,7.16-24,22.9-.46,2-2.89,12.4,4,18.43,5.68,5,14.12,3.85,14.65,6.71.72,3.88-14.74,6.17-16,13.41-.72,4.17,3.56,8.5,7.32,10.61,11.77,6.59,30.91-1.63,38.63-4.47,66-25.2,147.34,29.73,178.48-11.73,2.31-3.16,16.61-22.73,4.67-36.31-8-9.09-24.56-11.88-35.3-8.38-6.24,2-6.68,4.94-12,5.58-10.91,1.34-15.13-10.16-27.31-14-20.14-6.29-33.65,17.34-59.93,14-14.89-1.91-13.73-9.89-37.3-15.64C153.38,490.49,141.23,487.53,128.09,492Z"/><path class="cls-4" d="M400.17,488.12a124.54,124.54,0,0,1,40.62-3.91c22,1.67,40,2.79,36.63,5.58s-22.64,4.47-22.64,4.47H425.43Z"/><path class="cls-4" d="M64.54,519.16a124.86,124.86,0,0,1,40.62-3.91c22,1.68,40,2.8,36.63,5.59s-22.64,4.47-22.64,4.47H89.8Z"/><path class="cls-4" d="M67.54,476.06c9.15.27,18.31.54,27.46,0,8.64-.49,17.19-2,25.85-2.3a48.55,48.55,0,0,1,14.31,1.48,1.5,1.5,0,0,0,.8-2.89c-8.36-2.3-17.07-1.7-25.59-.78a245.91,245.91,0,0,1-27,1.78c-5.28,0-10.56-.17-15.84-.32-1.93-.06-1.93,2.94,0,3Z"/><path class="cls-5" d="M206.67,481.84c10.41-5.64,20.12-9.6,31.81-5.42,21,2.82,42.54,4.21,63.54.95"/><path class="cls-5" d="M35.68,514.29q22.09.5,44.21.11"/><path class="cls-5" d="M184.82,564c31.21,3.69,63.18,4.38,94.32-.78"/><path class="cls-6" d="M188.05,544.39a92.89,92.89,0,0,1,36.4-5.68,159.88,159.88,0,0,1,19.12,2.43,171.23,171.23,0,0,0,20.07,2.3A146.21,146.21,0,0,0,286,542.8a3.09,3.09,0,0,0,3-3,3,3,0,0,0-3-3,149.51,149.51,0,0,1-39.86-1.29c-6.59-1.08-13.16-2.28-19.83-2.7a97.76,97.76,0,0,0-18.81.66,96.44,96.44,0,0,0-21,5.14,3.07,3.07,0,0,0-2.09,3.69,3,3,0,0,0,3.69,2.09Z"/><path class="cls-4" d="M248.31,516.36a64.4,64.4,0,0,1,29.32-2.17c9.79,1.45,19.23,4.61,28.37,8.33,1.79.72,2.57-2.18.8-2.9-14.47-5.88-30.07-10.43-45.86-8.92a63,63,0,0,0-13.43,2.76c-1.83.59-1,3.49.8,2.9Z"/><path class="cls-4" d="M201.22,494.33A124.47,124.47,0,0,0,152.72,482c-8.94-.37-17.75.68-26.61,1.71q-13.56,1.57-27.22,2.29-15.37.81-30.8.49c-1.93,0-1.93,3,0,3A426.86,426.86,0,0,0,122,487.16c8.8-.94,17.58-2.28,26.45-2.26A114,114,0,0,1,173,487.67a124.92,124.92,0,0,1,26.66,9.25c1.74.83,3.26-1.75,1.52-2.59Z"/><path class="cls-4" d="M12.55,479.2a170.19,170.19,0,0,0,35.52-3.47c1.89-.38,1.09-3.28-.79-2.89a166,166,0,0,1-34.73,3.36,1.5,1.5,0,0,0,0,3Z"/><path class="cls-4" d="M24.12,461.81q33.12,1.65,66.29,2.61,9.48.27,19,.48c1.93.05,1.93-2.95,0-3q-33.17-.75-66.31-2.2-9.46-.42-18.93-.89c-1.93-.1-1.93,2.9,0,3Z"/><path class="cls-4" d="M33.53,557.49A153.76,153.76,0,0,0,51.2,561a111.78,111.78,0,0,0,18.11.63c12.34-.43,24.68-1.37,37-2.1l21-1.24c1.92-.12,1.93-3.12,0-3l-36.91,2.18c-11.94.71-24.06,2-36,.88a135,135,0,0,1-20-3.74c-1.87-.47-2.67,2.42-.79,2.89Z"/><path class="cls-4" d="M282,500.18a283.52,283.52,0,0,1,95.87,3.12c15.39,3.15,30.55,7.3,45.88,10.71a295.8,295.8,0,0,0,47.76,6.66c9.11.51,18.25.78,27.38,1,8.78.17,17.63,0,26.21-2,1.88-.44,1.08-3.34-.8-2.89-7.7,1.83-15.63,2.06-23.51,2q-12.18-.17-24.37-.74C468.2,517.55,460,517,451.9,516c-7.95-1-15.84-2.41-23.67-4.07-15.36-3.28-30.52-7.44-45.87-10.74a293.91,293.91,0,0,0-47.44-6.34,285.82,285.82,0,0,0-53.75,2.44c-1.91.26-1.1,3.15.79,2.89Z"/><path class="cls-4" d="M527.87,532.48A189.42,189.42,0,0,1,478,529.05c-1.88-.38-2.69,2.51-.8,2.89a193,193,0,0,0,50.69,3.54c1.92-.12,1.93-3.12,0-3Z"/><path class="cls-4" d="M490.31,548.83c-30.11-4.05-60.14-10.29-90.65-10.07-29.25.2-57.53,8.65-86.4,12.15-16.12,2-32.53,2.31-48.48-1.18-1.88-.41-2.68,2.48-.79,2.89,28.7,6.29,57.81.4,86.16-4.86,14.28-2.65,28.66-5.21,43.21-5.86,15.1-.67,30.29.61,45.28,2.47,17,2.1,33.89,5.07,50.87,7.35a1.56,1.56,0,0,0,1.85-1.05,1.51,1.51,0,0,0-1.05-1.84Z"/><path class="cls-4" d="M312.42,532.39a242.38,242.38,0,0,1,54.71-10.2,446.21,446.21,0,0,1,55.94-.32c10.45.51,20.89,1.25,31.33,2,1.92.15,1.91-2.85,0-3-18.7-1.44-37.43-2.66-56.19-2.76a328.82,328.82,0,0,0-55.8,4,222.69,222.69,0,0,0-30.79,7.33c-1.84.58-1.05,3.48.8,2.9Z"/><path class="cls-7" d="M495.4,462.3c-19.88,5.72-40.43,8.72-61.06,10s-41.53.85-62.26-.17c-11.63-.58-23.24-1.34-34.85-2.12-1.93-.13-1.92,2.87,0,3,20.81,1.39,41.63,2.75,62.49,3s41.57-.55,62.14-3.53a256.39,256.39,0,0,0,34.34-7.3,1.5,1.5,0,0,0-.8-2.89Z"/><path class="cls-5" d="M462.81,500.75Q445,498.28,427,496.39"/><path class="cls-5" d="M353.06,566.11a252.36,252.36,0,0,1,34.82-6.53,65.27,65.27,0,0,1,12.72-.53,90.11,90.11,0,0,1,10.59,1.82,200.42,200.42,0,0,0,51.61,3.62"/><path class="cls-8" d="M41.63,468.49c0,5.46-5.27,9.88-11.78,9.88-15.62-.54-15.62-19.22,0-19.75C36.36,458.62,41.63,463,41.63,468.49Z"/><path class="cls-8" d="M41.89,563c0,5.45-5.27,9.87-11.77,9.87-15.63-.53-15.62-19.21,0-19.75C36.62,553.09,41.89,557.51,41.89,563Z"/><path class="cls-8" d="M523.31,559.12c0,5.45-5.27,9.87-11.77,9.87-15.62-.53-15.62-19.22,0-19.75C518,549.24,523.31,553.66,523.31,559.12Z"/><path class="cls-8" d="M523.26,468.65c0,5.46-5.27,9.88-11.78,9.88-15.62-.53-15.62-19.22,0-19.75C518,458.78,523.26,463.2,523.26,468.65Z"/><polygon class="cls-1" points="540.68 731.14 546.13 722.43 546.13 665.63 502.14 646.71 491.14 649.98 540.68 731.14"/><path class="cls-2" d="M1,598s212.45,7.26,239.09,3.91,129.55-1.51,129.55-1.51L540.68,598V635.7l-48.86,14.83,48.86,22.26v59H1V695.32l28-9.6L1,679.63v-46.5l9.33-4.39L1,620.3Z"/><path class="cls-1" d="M8,594.26l-7,5.31c120.08,7.16,419.88.57,539.7,0v37.68l7.41-7.24V594.26Z"/><path class="cls-3" d="M127.85,643c-.93.31-20.3,7.16-24,22.9-.47,2-2.89,12.4,4,18.44,5.69,5,14.12,3.84,14.65,6.7.73,3.88-14.74,6.17-16,13.41-.71,4.17,3.56,8.5,7.33,10.61,11.76,6.59,30.9-1.63,38.62-4.47,66-25.2,147.34,29.73,178.49-11.73,2.3-3.15,16.6-22.73,4.66-36.31-8-9.09-24.55-11.88-35.3-8.38-6.23,2-6.67,4.94-12,5.59-10.91,1.33-15.14-10.17-27.31-14-20.14-6.29-33.66,17.34-59.94,14-14.88-1.91-13.73-9.9-37.29-15.64C153.14,641.5,141,638.54,127.85,643Z"/><path class="cls-4" d="M146.5,673.15a124.89,124.89,0,0,1,40.63-3.91c22,1.68,40,2.8,36.63,5.59s-22.65,4.47-22.65,4.47H171.77Z"/><path class="cls-4" d="M67.3,627.07c9.15.27,18.32.54,27.46,0,8.64-.48,17.2-2.05,25.85-2.3a48.61,48.61,0,0,1,14.32,1.48,1.5,1.5,0,0,0,.8-2.89c-8.36-2.3-17.07-1.7-25.59-.77a246.07,246.07,0,0,1-27,1.77c-5.29,0-10.57-.16-15.85-.32-1.93-.06-1.92,2.94,0,3Z"/><path class="cls-5" d="M206.43,632.85c10.42-5.64,20.13-9.6,31.82-5.42,21,2.82,42.54,4.21,63.54,1"/><path class="cls-5" d="M35.45,665.3q22.1.5,44.2.11"/><path class="cls-5" d="M184.58,715c31.22,3.69,63.18,4.38,94.33-.78"/><path class="cls-6" d="M187.81,695.4a93.13,93.13,0,0,1,36.41-5.68,159.72,159.72,0,0,1,19.11,2.43,171.4,171.4,0,0,0,20.08,2.3,146.21,146.21,0,0,0,22.34-.64,3.08,3.08,0,0,0,3-3,3,3,0,0,0-3-3,150,150,0,0,1-39.87-1.28c-6.58-1.08-13.16-2.29-19.83-2.71a97.66,97.66,0,0,0-18.8.66,96.3,96.3,0,0,0-21,5.14,3.09,3.09,0,0,0-2.1,3.69,3,3,0,0,0,3.69,2.09Z"/><path class="cls-4" d="M248.08,667.37a64.36,64.36,0,0,1,29.31-2.17c9.79,1.45,19.24,4.62,28.38,8.33,1.79.73,2.56-2.17.8-2.89-14.48-5.88-30.08-10.44-45.86-8.93a64.08,64.08,0,0,0-13.43,2.76c-1.83.59-1.05,3.49.8,2.9Z"/><path class="cls-4" d="M201,645.34A124.38,124.38,0,0,0,152.49,633c-8.94-.37-17.75.68-26.61,1.71q-13.57,1.59-27.22,2.3-15.39.79-30.8.49c-1.93,0-1.93,3,0,3a428.9,428.9,0,0,0,53.87-2.32c8.8-.94,17.57-2.29,26.45-2.27a113.49,113.49,0,0,1,24.63,2.78,124.53,124.53,0,0,1,26.66,9.24c1.73.83,3.26-1.75,1.51-2.59Z"/><path class="cls-4" d="M12.31,630.21a169.54,169.54,0,0,0,35.53-3.46c1.89-.39,1.09-3.28-.8-2.9a165.92,165.92,0,0,1-34.73,3.36,1.5,1.5,0,0,0,0,3Z"/><path class="cls-4" d="M23.88,612.82q33.14,1.65,66.3,2.61,9.46.27,18.95.49c1.93,0,1.93-3,0-3q-33.16-.76-66.31-2.21-9.48-.42-18.94-.89c-1.93-.09-1.92,2.91,0,3Z"/><path class="cls-4" d="M33.29,708.5A154.38,154.38,0,0,0,51,712a112.8,112.8,0,0,0,18.1.62c12.34-.42,24.68-1.37,37-2.1l21-1.24c1.92-.11,1.93-3.12,0-3l-36.91,2.18c-12,.71-24.06,2-36,.88a133.56,133.56,0,0,1-20-3.74c-1.87-.47-2.67,2.42-.8,2.89Z"/><path class="cls-4" d="M281.73,651.19a283.72,283.72,0,0,1,95.86,3.12c15.4,3.15,30.56,7.31,45.89,10.71a295.68,295.68,0,0,0,47.75,6.66c9.12.52,18.26.78,27.39,1,8.77.17,17.62,0,26.2-2,1.88-.44,1.09-3.34-.79-2.89-7.7,1.83-15.63,2.07-23.51,2q-12.19-.17-24.37-.74c-8.18-.37-16.36-.93-24.48-1.92-8-1-15.84-2.4-23.67-4.07-15.36-3.27-30.52-7.44-45.88-10.74a294.88,294.88,0,0,0-47.44-6.34,285.86,285.86,0,0,0-53.75,2.44c-1.9.26-1.09,3.16.8,2.89Z"/><path class="cls-4" d="M527.64,683.49a189.39,189.39,0,0,1-49.89-3.43c-1.89-.38-2.69,2.51-.8,2.9a193.31,193.31,0,0,0,50.69,3.53c1.92-.12,1.93-3.12,0-3Z"/><path class="cls-4" d="M490.08,699.84c-30.12-4.05-60.15-10.29-90.66-10.07-29.24.21-57.52,8.65-86.39,12.16-16.13,2-32.54,2.3-48.48-1.19-1.88-.41-2.69,2.48-.8,2.89,28.7,6.29,57.81.4,86.16-4.86,14.29-2.65,28.67-5.21,43.21-5.86,15.11-.67,30.3.61,45.29,2.47,17,2.1,33.89,5.07,50.87,7.35a1.54,1.54,0,0,0,1.84-1.05,1.5,1.5,0,0,0-1-1.84Z"/><path class="cls-4" d="M312.18,683.4a243,243,0,0,1,54.72-10.2,446,446,0,0,1,55.93-.32c10.46.51,20.9,1.25,31.33,2,1.93.15,1.92-2.85,0-3-18.69-1.44-37.42-2.66-56.18-2.76a329.71,329.71,0,0,0-55.8,4,221.43,221.43,0,0,0-30.8,7.34c-1.83.58-1.05,3.47.8,2.89Z"/><path class="cls-7" d="M495.17,613.31c-19.89,5.72-40.43,8.72-61.06,10s-41.53.85-62.27-.17c-11.62-.57-23.23-1.34-34.84-2.12-1.93-.13-1.92,2.88,0,3,20.8,1.39,41.62,2.75,62.48,3s41.58-.56,62.15-3.53A257.51,257.51,0,0,0,496,616.2a1.5,1.5,0,0,0-.79-2.89Z"/><path class="cls-5" d="M462.58,651.76q-17.86-2.46-35.83-4.36"/><path class="cls-5" d="M352.83,717.12a251.8,251.8,0,0,1,34.82-6.53,64.43,64.43,0,0,1,12.72-.52A89.57,89.57,0,0,1,411,711.88a200.52,200.52,0,0,0,51.62,3.62"/><path class="cls-8" d="M41.39,619.67c0,5.46-5.27,9.88-11.77,9.88C14,629,14,610.33,29.62,609.8,36.12,609.8,41.39,614.22,41.39,619.67Z"/><path class="cls-8" d="M41.65,714.15c0,5.45-5.27,9.87-11.77,9.87-15.62-.53-15.62-19.22,0-19.75C36.38,704.27,41.65,708.69,41.65,714.15Z"/><path class="cls-8" d="M523.08,710.3c0,5.45-5.27,9.87-11.77,9.87-15.63-.53-15.62-19.22,0-19.75C517.81,700.42,523.08,704.84,523.08,710.3Z"/><path class="cls-8" d="M523,619.83c0,5.46-5.27,9.88-11.77,9.88-15.62-.54-15.62-19.22,0-19.75C517.75,610,523,614.38,523,619.83Z"/><polygon class="cls-1" points="539.7 429.67 545.14 420.95 545.14 364.16 501.16 345.23 490.16 348.51 539.7 429.67"/><path class="cls-2" d="M0,296.71s212.45,7.26,239.09,3.91,129.55-1.51,129.55-1.51l171.06-2.4V334.4l-48.87,14.82,48.87,22.26v59H0V394l28-9.6L0,378.33v-46.5l9.32-4.39L0,319Z"/><path class="cls-1" d="M7,293.12l-7,5.31c120.07,7.16,419.88.58,539.7,0v37.68l7.41-7.24V293.12Z"/><path class="cls-3" d="M126.87,341.68c-.93.32-20.3,7.16-24,22.91-.47,2-2.9,12.39,4,18.43,5.69,5,14.12,3.84,14.65,6.7.72,3.88-14.74,6.18-16,13.41-.72,4.18,3.56,8.51,7.33,10.62,11.76,6.58,30.9-1.63,38.62-4.47,66-25.2,147.34,29.73,178.49-11.73,2.3-3.16,16.6-22.74,4.66-36.32-8-9.08-24.55-11.88-35.3-8.37-6.23,2-6.67,4.93-12,5.58-10.9,1.33-15.13-10.16-27.3-14-20.14-6.29-33.66,17.34-59.94,14-14.88-1.91-13.73-9.89-37.3-15.64C152.16,340.2,140,337.24,126.87,341.68Z"/><path class="cls-4" d="M145.52,371.85a124.54,124.54,0,0,1,40.62-3.91c22,1.67,40,2.79,36.63,5.58S200.13,378,200.13,378H170.78Z"/><path class="cls-4" d="M66.32,325.76c9.15.27,18.32.54,27.46,0,8.64-.48,17.2-2,25.85-2.29A48.32,48.32,0,0,1,134,325a1.5,1.5,0,0,0,.8-2.89c-8.36-2.31-17.08-1.71-25.59-.78a246.08,246.08,0,0,1-27,1.77c-5.28,0-10.56-.16-15.84-.32-1.93-.05-1.93,2.95,0,3Z"/><path class="cls-5" d="M205.45,331.54c10.42-5.64,20.13-9.59,31.82-5.41,21,2.82,42.54,4.21,63.54.94"/><path class="cls-5" d="M34.47,364q22.1.48,44.2.11"/><path class="cls-5" d="M183.6,413.73c31.21,3.7,63.18,4.39,94.32-.77"/><path class="cls-6" d="M186.83,394.1a92.94,92.94,0,0,1,36.41-5.68,159.72,159.72,0,0,1,19.11,2.43,175.53,175.53,0,0,0,20.08,2.3,147.37,147.37,0,0,0,22.33-.64,3.09,3.09,0,0,0,3-3,3,3,0,0,0-3-3,149.52,149.52,0,0,1-39.86-1.29c-6.58-1.08-13.16-2.28-19.83-2.7a99.25,99.25,0,0,0-39.83,5.79,3.09,3.09,0,0,0-2.1,3.69,3,3,0,0,0,3.69,2.1Z"/><path class="cls-4" d="M247.1,366.06a64.36,64.36,0,0,1,29.31-2.16c9.79,1.45,19.24,4.61,28.38,8.32,1.78.73,2.56-2.17.79-2.89-14.47-5.88-30.07-10.43-45.85-8.93a63.47,63.47,0,0,0-13.43,2.77c-1.83.59-1.05,3.49.8,2.89Z"/><path class="cls-4" d="M200,344a124.56,124.56,0,0,0-48.49-12.35c-8.94-.36-17.75.69-26.62,1.72Q111.33,335,97.68,335.7q-15.39.8-30.8.49c-1.93,0-1.93,3,0,3a428.9,428.9,0,0,0,53.87-2.32c8.8-.94,17.57-2.28,26.44-2.27a114.76,114.76,0,0,1,24.64,2.78,124.75,124.75,0,0,1,26.66,9.25c1.73.83,3.26-1.76,1.51-2.59Z"/><path class="cls-4" d="M11.33,328.9a169.61,169.61,0,0,0,35.53-3.46c1.89-.39,1.09-3.28-.8-2.89a166,166,0,0,1-34.73,3.35,1.5,1.5,0,0,0,0,3Z"/><path class="cls-4" d="M22.9,311.52q33.14,1.65,66.29,2.6,9.48.27,19,.49c1.93,0,1.93-3,0-3Q75,310.86,41.83,309.4q-9.46-.4-18.93-.88c-1.93-.1-1.92,2.9,0,3Z"/><path class="cls-4" d="M32.31,407.19A152.09,152.09,0,0,0,50,410.7a113,113,0,0,0,18.11.63c12.34-.43,24.68-1.38,37-2.11l21-1.24c1.92-.11,1.93-3.11,0-3l-36.91,2.19c-12,.7-24.06,2-36,.87a132.08,132.08,0,0,1-20-3.74c-1.88-.46-2.68,2.43-.8,2.89Z"/><path class="cls-4" d="M280.75,349.89A283.47,283.47,0,0,1,376.61,353c15.39,3.15,30.55,7.3,45.89,10.71a296.64,296.64,0,0,0,47.75,6.66c9.12.51,18.26.78,27.38.95,8.78.17,17.63,0,26.21-2,1.88-.45,1.08-3.34-.8-2.89-7.69,1.83-15.62,2.06-23.5,2q-12.19-.17-24.37-.74c-8.18-.37-16.36-.94-24.49-1.93-7.95-1-15.83-2.4-23.66-4.07-15.37-3.27-30.52-7.43-45.88-10.73a295.05,295.05,0,0,0-47.44-6.35A287.55,287.55,0,0,0,280,347c-1.9.27-1.09,3.16.8,2.9Z"/><path class="cls-4" d="M526.66,382.19a190.34,190.34,0,0,1-49.9-3.43c-1.88-.39-2.69,2.5-.79,2.89a192.89,192.89,0,0,0,50.69,3.54c1.92-.12,1.93-3.12,0-3Z"/><path class="cls-4" d="M489.1,398.53c-30.12-4-60.15-10.28-90.66-10.07-29.24.21-57.52,8.65-86.39,12.16-16.13,2-32.54,2.31-48.48-1.18-1.88-.42-2.69,2.47-.8,2.89,28.7,6.28,57.81.4,86.16-4.86,14.29-2.65,28.67-5.21,43.21-5.86,15.11-.68,30.3.61,45.28,2.46,17,2.11,33.9,5.07,50.88,7.36a1.55,1.55,0,0,0,1.84-1.05,1.51,1.51,0,0,0-1-1.85Z"/><path class="cls-4" d="M311.2,382.09a243,243,0,0,1,54.72-10.19,444.15,444.15,0,0,1,55.93-.32c10.46.51,20.9,1.24,31.33,2.05,1.93.15,1.92-2.85,0-3-18.69-1.44-37.42-2.67-56.18-2.77a329.91,329.91,0,0,0-55.81,4,223,223,0,0,0-30.79,7.33c-1.83.58-1,3.48.8,2.89Z"/><path class="cls-7" d="M494.19,312c-19.89,5.73-40.43,8.73-61.06,10s-41.53.85-62.27-.17c-11.62-.57-23.23-1.34-34.85-2.11-1.92-.13-1.92,2.87,0,3,20.81,1.39,41.63,2.75,62.49,3s41.58-.55,62.15-3.53A257.81,257.81,0,0,0,495,314.9a1.5,1.5,0,0,0-.79-2.9Z"/><path class="cls-5" d="M461.6,350.45q-17.87-2.46-35.83-4.36"/><path class="cls-5" d="M351.84,415.81a252.2,252.2,0,0,1,34.83-6.52,64.43,64.43,0,0,1,12.72-.53A89.92,89.92,0,0,1,410,410.57a200,200,0,0,0,51.61,3.63"/><path class="cls-8" d="M40.41,319.06c0,5.45-5.27,9.87-11.77,9.87-15.62-.53-15.62-19.21,0-19.75C35.14,309.18,40.41,313.6,40.41,319.06Z"/><path class="cls-8" d="M40.67,413.53c0,5.46-5.27,9.88-11.77,9.88-15.62-.54-15.62-19.22,0-19.75C35.4,403.66,40.67,408.08,40.67,413.53Z"/><path class="cls-8" d="M522.1,409.68c0,5.45-5.27,9.88-11.77,9.88-15.63-.54-15.62-19.22,0-19.75C516.83,399.81,522.1,404.23,522.1,409.68Z"/><path class="cls-8" d="M522,319.22c0,5.45-5.27,9.87-11.77,9.87-15.62-.53-15.62-19.21,0-19.75C516.77,309.34,522,313.76,522,319.22Z"/><path class="cls-9" d="M513.73,776.28c3.28-.52,6.29-4,5.79-6.11-.29-1.2-1.56-1.35-1.93-3.06-.28-1.28.31-1.73,0-2.55-.61-1.62-3.84-2.32-6.27-1.53-3.5,1.14-4.69,5.14-4.82,5.61-.15.27-1.66,3.1-.49,5.09.69,1.16,2,1.51,3.86,2A8.53,8.53,0,0,0,513.73,776.28Z"/><path class="cls-9" d="M510.13,702.59c-3.29.52-6.29,4-5.79,6.11.29,1.2,1.56,1.34,1.93,3.06.28,1.27-.31,1.72,0,2.54.61,1.63,3.84,2.32,6.27,1.53,3.5-1.13,4.69-5.13,4.82-5.6.15-.28,1.66-3.11.49-5.1-.69-1.15-2-1.5-3.86-2A8.55,8.55,0,0,0,510.13,702.59Z"/><path class="cls-9" d="M507.2,768.22c3.89,1.73,10.31-3.43,11.57-8.15.53-2.1.37-4.83-.48-5.1s-1.36,3-4.34,4.59c-2.25,1.21-3.77.28-6.75,2A3.62,3.62,0,0,0,507.2,768.22Z"/><path class="cls-9" d="M507.41,761.57c3.9,1.73,10.32-3.44,11.58-8.16.52-2.09.36-4.82-.49-5.09s-1.36,3-4.34,4.59c-2.24,1.2-3.76.28-6.75,2A3.63,3.63,0,0,0,507.41,761.57Z"/><path class="cls-9" d="M507.08,755.2c3.9,1.73,10.31-3.43,11.57-8.15.53-2.1.37-4.82-.48-5.09s-1.36,3-4.34,4.58c-2.25,1.21-3.77.28-6.75,2A3.63,3.63,0,0,0,507.08,755.2Z"/><path class="cls-9" d="M507.3,748.55c3.89,1.73,10.31-3.43,11.57-8.15.53-2.1.37-4.83-.48-5.1s-1.37,3-4.34,4.59c-2.25,1.21-3.77.28-6.75,2A3.62,3.62,0,0,0,507.3,748.55Z"/><path class="cls-9" d="M507.14,741.61c3.9,1.74,10.31-3.43,11.57-8.15.53-2.09.37-4.82-.48-5.09s-1.36,3-4.34,4.58c-2.25,1.21-3.77.29-6.75,2A3.62,3.62,0,0,0,507.14,741.61Z"/><path class="cls-9" d="M507.35,735c3.9,1.73,10.32-3.43,11.58-8.15.52-2.1.36-4.82-.49-5.09s-1.36,3-4.34,4.58c-2.24,1.21-3.76.28-6.75,2A3.63,3.63,0,0,0,507.35,735Z"/><path class="cls-9" d="M507,728.6c3.9,1.73,10.31-3.44,11.57-8.15.53-2.1.37-4.83-.48-5.1s-1.36,3-4.34,4.59c-2.24,1.21-3.77.28-6.75,2A3.63,3.63,0,0,0,507,728.6Z"/><path class="cls-9" d="M507.24,721.94c3.9,1.74,10.31-3.43,11.57-8.15.53-2.09.37-4.82-.48-5.09s-1.36,3-4.34,4.58c-2.25,1.21-3.77.29-6.75,2A3.62,3.62,0,0,0,507.24,721.94Z"/><path class="cls-9" d="M512.79,625.81c3.29-.52,6.3-4,5.79-6.11-.29-1.2-1.55-1.34-1.93-3.06-.28-1.28.31-1.72,0-2.54-.61-1.63-3.84-2.32-6.27-1.53-3.49,1.13-4.69,5.13-4.82,5.6-.15.28-1.66,3.1-.48,5.1.68,1.15,1.95,1.5,3.86,2A8.49,8.49,0,0,0,512.79,625.81Z"/><path class="cls-9" d="M509.19,552.12c-3.28.52-6.29,4-5.78,6.11.28,1.2,1.55,1.35,1.93,3.06.28,1.28-.31,1.72,0,2.55.61,1.62,3.83,2.31,6.26,1.52,3.5-1.13,4.69-5.13,4.83-5.6.15-.27,1.66-3.1.48-5.09-.68-1.16-2-1.51-3.86-2A8.53,8.53,0,0,0,509.19,552.12Z"/><path class="cls-9" d="M506.26,617.75c3.9,1.73,10.31-3.43,11.57-8.15.53-2.1.37-4.83-.48-5.09s-1.36,3-4.34,4.58c-2.25,1.21-3.77.28-6.75,2A3.63,3.63,0,0,0,506.26,617.75Z"/><path class="cls-9" d="M506.48,611.1c3.9,1.73,10.31-3.43,11.57-8.15.53-2.1.37-4.83-.48-5.1s-1.36,3-4.34,4.59c-2.25,1.21-3.77.28-6.75,2A3.62,3.62,0,0,0,506.48,611.1Z"/><path class="cls-9" d="M506.14,604.73c3.9,1.74,10.32-3.43,11.58-8.15.52-2.09.36-4.82-.49-5.09s-1.36,3-4.34,4.58c-2.24,1.21-3.76.29-6.75,2A3.63,3.63,0,0,0,506.14,604.73Z"/><path class="cls-9" d="M506.36,598.08c3.9,1.73,10.31-3.43,11.57-8.15.53-2.1.37-4.82-.48-5.09s-1.36,3-4.34,4.58c-2.25,1.21-3.77.28-6.75,2A3.63,3.63,0,0,0,506.36,598.08Z"/><path class="cls-9" d="M506.2,591.15c3.9,1.73,10.31-3.44,11.57-8.15.53-2.1.37-4.83-.48-5.1s-1.36,3-4.34,4.59c-2.24,1.2-3.77.28-6.75,2A3.63,3.63,0,0,0,506.2,591.15Z"/><path class="cls-9" d="M506.42,584.49c3.9,1.73,10.31-3.43,11.57-8.15.53-2.09.37-4.82-.48-5.09s-1.36,3-4.34,4.58c-2.25,1.21-3.77.29-6.75,2A3.62,3.62,0,0,0,506.42,584.49Z"/><path class="cls-9" d="M506.08,578.13c3.9,1.73,10.32-3.43,11.58-8.15.52-2.1.36-4.83-.49-5.1s-1.36,3-4.34,4.59c-2.24,1.21-3.76.28-6.75,2A3.63,3.63,0,0,0,506.08,578.13Z"/><path class="cls-9" d="M506.3,571.48c3.9,1.73,10.31-3.44,11.57-8.15.53-2.1.37-4.83-.48-5.1s-1.36,3-4.34,4.59c-2.24,1.21-3.77.28-6.75,2A3.63,3.63,0,0,0,506.3,571.48Z"/><path class="cls-9" d="M31.74,776.62c3.29-.5,6.3-3.8,5.79-5.8-.29-1.14-1.55-1.28-1.93-2.91-.28-1.21.31-1.63,0-2.41-.61-1.54-3.84-2.2-6.27-1.45-3.49,1.07-4.69,4.87-4.82,5.31-.15.27-1.66,2.95-.48,4.84.68,1.09,1.95,1.43,3.85,1.93A9.11,9.11,0,0,0,31.74,776.62Z"/><path class="cls-9" d="M28.14,706.67c-3.28.49-6.29,3.8-5.78,5.8.28,1.14,1.55,1.28,1.92,2.9.29,1.22-.3,1.64,0,2.42.62,1.54,3.84,2.2,6.27,1.45,3.5-1.08,4.69-4.87,4.83-5.32.15-.26,1.66-2.94.48-4.83-.68-1.1-2-1.43-3.86-1.94A9.23,9.23,0,0,0,28.14,706.67Z"/><path class="cls-9" d="M25.21,769c3,1.41,7.79-1.71,10.12-4.84a8.15,8.15,0,0,0,1.45-2.9c.53-2,.37-4.58-.48-4.84s-1.36,2.83-4.34,4.36c-2.25,1.14-3.77.26-6.75,1.93A3.38,3.38,0,0,0,25.21,769Z"/><path class="cls-9" d="M25.42,762.65c3,1.42,7.79-1.7,10.13-4.83A8.28,8.28,0,0,0,37,754.91c.52-2,.37-4.57-.48-4.83s-1.37,2.83-4.34,4.35c-2.25,1.15-3.77.27-6.76,1.94A3.37,3.37,0,0,0,25.42,762.65Z"/><path class="cls-9" d="M25.09,756.61c3,1.42,7.79-1.7,10.13-4.83a8.35,8.35,0,0,0,1.44-2.91c.53-2,.37-4.57-.48-4.83s-1.36,2.83-4.34,4.35c-2.24,1.15-3.77.27-6.75,1.94A3.37,3.37,0,0,0,25.09,756.61Z"/><path class="cls-9" d="M25.31,750.3c3,1.41,7.79-1.71,10.12-4.84a8.32,8.32,0,0,0,1.45-2.9c.53-2,.37-4.58-.48-4.84s-1.36,2.83-4.34,4.36c-2.25,1.14-3.77.27-6.75,1.93A3.38,3.38,0,0,0,25.31,750.3Z"/><path class="cls-9" d="M25.15,743.71c3,1.42,7.79-1.7,10.13-4.83a8.3,8.3,0,0,0,1.44-2.9c.53-2,.37-4.58-.48-4.84s-1.36,2.83-4.34,4.35c-2.25,1.15-3.77.27-6.75,1.94A3.37,3.37,0,0,0,25.15,743.71Z"/><path class="cls-9" d="M25.37,737.4c3,1.42,7.78-1.71,10.12-4.84a8.32,8.32,0,0,0,1.45-2.9c.53-2,.37-4.58-.48-4.83s-1.36,2.83-4.34,4.35c-2.25,1.15-3.77.27-6.75,1.93A3.38,3.38,0,0,0,25.37,737.4Z"/><path class="cls-9" d="M25,731.36c3,1.42,7.79-1.71,10.13-4.84a8.49,8.49,0,0,0,1.45-2.9c.52-2,.36-4.58-.49-4.83s-1.36,2.83-4.34,4.35c-2.24,1.15-3.76.27-6.75,1.93A3.38,3.38,0,0,0,25,731.36Z"/><path class="cls-9" d="M25.25,725.05c3,1.41,7.79-1.71,10.13-4.84a8.3,8.3,0,0,0,1.44-2.9c.53-2,.37-4.58-.48-4.84S35,715.3,32,716.83c-2.25,1.14-3.77.26-6.75,1.93A3.38,3.38,0,0,0,25.25,725.05Z"/><path class="cls-9" d="M32.15,627.14c3.29-.5,6.3-3.88,5.79-5.93-.29-1.17-1.55-1.31-1.93-3-.28-1.25.31-1.68,0-2.48-.61-1.57-3.84-2.25-6.27-1.48-3.49,1.1-4.68,5-4.82,5.44-.15.27-1.66,3-.48,4.95.68,1.12,2,1.46,3.86,2A8.89,8.89,0,0,0,32.15,627.14Z"/><path class="cls-9" d="M28.56,555.57c-3.29.5-6.3,3.88-5.79,5.93.29,1.17,1.55,1.31,1.93,3,.28,1.25-.31,1.68,0,2.48.61,1.57,3.84,2.25,6.27,1.48,3.49-1.1,4.69-5,4.82-5.44.15-.27,1.66-3,.48-5-.68-1.12-2-1.46-3.86-2A8.89,8.89,0,0,0,28.56,555.57Z"/><path class="cls-9" d="M25.62,619.31c3.85,1.68,10.3-3.29,11.57-7.91.53-2,.37-4.69-.48-4.95s-1.36,2.89-4.34,4.45c-2.24,1.18-3.76.28-6.75,2A3.48,3.48,0,0,0,25.62,619.31Z"/><path class="cls-9" d="M25.84,612.85c3.84,1.68,10.3-3.29,11.57-7.92.53-2,.37-4.68-.48-4.94s-1.36,2.89-4.34,4.45c-2.25,1.17-3.77.27-6.75,2A3.48,3.48,0,0,0,25.84,612.85Z"/><path class="cls-9" d="M25.5,606.67c3.85,1.68,10.3-3.29,11.58-7.92.52-2,.36-4.68-.49-4.94s-1.36,2.89-4.34,4.45c-2.24,1.17-3.76.27-6.75,2A3.48,3.48,0,0,0,25.5,606.67Z"/><path class="cls-9" d="M25.72,600.21c3.85,1.68,10.3-3.29,11.57-7.92.53-2,.37-4.68-.48-4.95s-1.36,2.9-4.34,4.46c-2.24,1.17-3.76.27-6.75,2A3.48,3.48,0,0,0,25.72,600.21Z"/><path class="cls-9" d="M25.56,593.47c3.85,1.68,10.3-3.29,11.58-7.91.52-2,.36-4.69-.49-4.95s-1.36,2.89-4.34,4.45c-2.24,1.18-3.76.28-6.75,2A3.48,3.48,0,0,0,25.56,593.47Z"/><path class="cls-9" d="M25.78,587c3.85,1.68,10.3-3.29,11.57-7.92.53-2,.37-4.68-.48-4.94s-1.36,2.89-4.34,4.45c-2.25,1.17-3.77.27-6.75,2A3.48,3.48,0,0,0,25.78,587Z"/><path class="cls-9" d="M25.45,580.83c3.84,1.68,10.3-3.29,11.57-7.92.53-2,.37-4.68-.48-4.94s-1.37,2.89-4.34,4.45c-2.25,1.17-3.77.27-6.75,2A3.48,3.48,0,0,0,25.45,580.83Z"/><path class="cls-9" d="M25.66,574.37c3.85,1.68,10.3-3.29,11.58-7.92.52-2,.36-4.68-.49-5s-1.36,2.9-4.34,4.46c-2.24,1.17-3.76.27-6.75,2A3.48,3.48,0,0,0,25.66,574.37Z"/><path class="cls-9" d="M512.32,323.88c3.29-.51,6.3-3.88,5.79-5.94-.29-1.16-1.55-1.3-1.93-3-.28-1.24.31-1.67,0-2.47-.61-1.58-3.84-2.25-6.27-1.49-3.49,1.11-4.69,5-4.82,5.45-.15.26-1.66,3-.48,4.94.68,1.12,1.95,1.47,3.86,2A8.76,8.76,0,0,0,512.32,323.88Z"/><path class="cls-9" d="M505.79,316.05c3.85,1.68,10.3-3.29,11.57-7.92.53-2,.37-4.68-.48-4.95s-1.36,2.9-4.34,4.46c-2.25,1.17-3.77.27-6.75,2A3.48,3.48,0,0,0,505.79,316.05Z"/><path class="cls-9" d="M506,309.59c3.84,1.68,10.3-3.3,11.57-7.92.53-2,.37-4.69-.48-4.95s-1.36,2.9-4.34,4.46c-2.25,1.17-3.77.27-6.75,2A3.49,3.49,0,0,0,506,309.59Z"/><path class="cls-9" d="M505.67,303.41c3.85,1.68,10.3-3.3,11.58-7.92.52-2,.36-4.69-.49-4.95s-1.36,2.9-4.34,4.45c-2.24,1.18-3.76.28-6.75,2A3.49,3.49,0,0,0,505.67,303.41Z"/><path class="cls-9" d="M505.89,296.94c3.85,1.69,10.3-3.29,11.57-7.91.53-2,.37-4.69-.48-4.95s-1.36,2.89-4.34,4.45c-2.25,1.18-3.77.28-6.75,2A3.48,3.48,0,0,0,505.89,296.94Z"/><path class="cls-9" d="M505.73,290.21c3.85,1.68,10.3-3.29,11.57-7.92.53-2,.37-4.68-.48-5s-1.36,2.9-4.34,4.46c-2.24,1.17-3.77.27-6.75,2A3.48,3.48,0,0,0,505.73,290.21Z"/><path class="cls-9" d="M506,283.75c3.84,1.68,10.3-3.3,11.57-7.92.53-2,.37-4.69-.48-4.95s-1.36,2.9-4.34,4.46c-2.25,1.17-3.77.27-6.75,2A3.49,3.49,0,0,0,506,283.75Z"/><path class="cls-9" d="M505.61,277.57c3.85,1.68,10.3-3.3,11.58-7.92.52-2,.36-4.69-.49-4.95s-1.36,2.9-4.34,4.45c-2.24,1.18-3.76.28-6.75,2A3.49,3.49,0,0,0,505.61,277.57Z"/><path class="cls-9" d="M505.83,271.1c3.85,1.69,10.3-3.29,11.57-7.91.53-2,.37-4.69-.48-4.95s-1.36,2.89-4.34,4.45c-2.24,1.18-3.77.28-6.75,2A3.48,3.48,0,0,0,505.83,271.1Z"/><path class="cls-9" d="M505.64,264.7c3.85,1.69,10.3-3.29,11.57-7.91.53-2,.37-4.69-.48-5s-1.36,2.89-4.34,4.45c-2.24,1.18-3.77.28-6.75,2A3.48,3.48,0,0,0,505.64,264.7Z"/><path class="cls-9" d="M505.86,258.24c3.84,1.68,10.3-3.29,11.57-7.91.53-2,.37-4.69-.48-5s-1.36,2.89-4.34,4.45c-2.25,1.17-3.77.28-6.75,2A3.48,3.48,0,0,0,505.86,258.24Z"/><path class="cls-9" d="M505.52,252.06c3.85,1.68,10.3-3.29,11.58-7.92.52-2,.36-4.68-.49-4.94s-1.36,2.89-4.34,4.45c-2.24,1.17-3.76.27-6.75,2A3.48,3.48,0,0,0,505.52,252.06Z"/><path class="cls-9" d="M505.74,245.6c3.85,1.68,10.3-3.29,11.57-7.92.53-2,.37-4.68-.48-5s-1.36,2.9-4.34,4.46c-2.24,1.17-3.77.27-6.75,2A3.48,3.48,0,0,0,505.74,245.6Z"/><path class="cls-9" d="M505.58,238.86c3.85,1.69,10.3-3.29,11.57-7.91.53-2,.37-4.69-.48-4.95s-1.36,2.89-4.34,4.45c-2.24,1.18-3.76.28-6.75,2A3.48,3.48,0,0,0,505.58,238.86Z"/><path class="cls-9" d="M505.8,232.4c3.85,1.68,10.3-3.29,11.57-7.91.53-2,.37-4.69-.48-5s-1.36,2.89-4.34,4.45c-2.25,1.17-3.77.28-6.75,2A3.48,3.48,0,0,0,505.8,232.4Z"/><path class="cls-9" d="M505.46,226.22c3.85,1.68,10.31-3.29,11.58-7.92.52-2,.36-4.68-.48-4.94s-1.37,2.89-4.34,4.45c-2.25,1.17-3.77.27-6.76,2A3.48,3.48,0,0,0,505.46,226.22Z"/><path class="cls-9" d="M505.68,219.76c3.85,1.68,10.3-3.29,11.57-7.92.53-2,.37-4.68-.48-5s-1.36,2.9-4.34,4.46c-2.24,1.17-3.76.27-6.75,2A3.48,3.48,0,0,0,505.68,219.76Z"/><path class="cls-9" d="M505.64,213.19c3.85,1.68,10.3-3.29,11.57-7.92.53-2,.37-4.68-.48-4.94s-1.36,2.89-4.34,4.45c-2.24,1.17-3.77.27-6.75,2A3.48,3.48,0,0,0,505.64,213.19Z"/><path class="cls-9" d="M505.86,206.73c3.84,1.68,10.3-3.29,11.57-7.92.53-2,.37-4.68-.48-4.95s-1.36,2.9-4.34,4.46c-2.25,1.17-3.77.27-6.75,2A3.48,3.48,0,0,0,505.86,206.73Z"/><path class="cls-9" d="M505.52,200.55c3.85,1.68,10.3-3.29,11.58-7.92.52-2,.36-4.69-.49-4.95s-1.36,2.9-4.34,4.46c-2.24,1.17-3.76.27-6.75,2A3.49,3.49,0,0,0,505.52,200.55Z"/><path class="cls-9" d="M505.74,194.09c3.85,1.68,10.3-3.3,11.57-7.92.53-2,.37-4.69-.48-4.95s-1.36,2.9-4.34,4.45c-2.24,1.18-3.77.28-6.75,2A3.49,3.49,0,0,0,505.74,194.09Z"/><path class="cls-9" d="M505.58,187.35c3.85,1.68,10.3-3.29,11.57-7.92.53-2,.37-4.68-.48-4.94s-1.36,2.89-4.34,4.45c-2.24,1.17-3.76.27-6.75,2A3.48,3.48,0,0,0,505.58,187.35Z"/><path class="cls-9" d="M505.8,180.89c3.85,1.68,10.3-3.29,11.57-7.92.53-2,.37-4.68-.48-4.95s-1.36,2.9-4.34,4.46c-2.25,1.17-3.77.27-6.75,2A3.48,3.48,0,0,0,505.8,180.89Z"/><path class="cls-9" d="M505.46,174.71c3.85,1.68,10.31-3.3,11.58-7.92.52-2,.36-4.69-.48-4.95s-1.37,2.9-4.34,4.46c-2.25,1.17-3.77.27-6.76,2A3.49,3.49,0,0,0,505.46,174.71Z"/><path class="cls-9" d="M505.68,168.25c3.85,1.68,10.3-3.3,11.57-7.92.53-2,.37-4.69-.48-5s-1.36,2.9-4.34,4.45c-2.24,1.18-3.76.28-6.75,2A3.49,3.49,0,0,0,505.68,168.25Z"/><path class="cls-9" d="M505.48,161.46c3.85,1.68,10.3-3.29,11.57-7.92.53-2,.37-4.68-.48-4.95s-1.36,2.9-4.34,4.46c-2.24,1.17-3.77.27-6.75,2A3.48,3.48,0,0,0,505.48,161.46Z"/><path class="cls-9" d="M505.7,155c3.84,1.68,10.3-3.29,11.57-7.92.53-2,.37-4.69-.48-5s-1.36,2.9-4.34,4.46c-2.25,1.17-3.77.27-6.75,2A3.48,3.48,0,0,0,505.7,155Z"/><path class="cls-9" d="M505.36,148.82c3.85,1.68,10.3-3.3,11.58-7.92.52-2,.36-4.69-.49-5s-1.36,2.9-4.34,4.46c-2.24,1.17-3.76.27-6.75,2A3.49,3.49,0,0,0,505.36,148.82Z"/><path class="cls-9" d="M505.58,142.36c3.85,1.68,10.3-3.3,11.57-7.92.53-2,.37-4.69-.48-4.95s-1.36,2.9-4.34,4.45c-2.24,1.18-3.77.28-6.75,2A3.49,3.49,0,0,0,505.58,142.36Z"/><path class="cls-9" d="M505.42,135.62c3.85,1.68,10.3-3.29,11.58-7.92.52-2,.36-4.68-.49-5s-1.36,2.9-4.34,4.46c-2.24,1.17-3.76.27-6.75,2A3.48,3.48,0,0,0,505.42,135.62Z"/><path class="cls-9" d="M505.64,129.16c3.85,1.68,10.3-3.29,11.57-7.92.53-2,.37-4.69-.48-4.95s-1.36,2.9-4.34,4.46c-2.25,1.17-3.77.27-6.75,2A3.48,3.48,0,0,0,505.64,129.16Z"/><path class="cls-9" d="M505.3,123c3.85,1.68,10.31-3.3,11.58-7.92.52-2,.36-4.69-.48-5s-1.37,2.9-4.34,4.46c-2.25,1.17-3.77.27-6.76,2A3.49,3.49,0,0,0,505.3,123Z"/><path class="cls-9" d="M505.52,116.52c3.85,1.68,10.3-3.3,11.57-7.92.53-2,.37-4.69-.48-4.95s-1.36,2.9-4.34,4.45c-2.24,1.18-3.76.28-6.75,2A3.49,3.49,0,0,0,505.52,116.52Z"/><path class="cls-9" d="M505.33,110.12c3.85,1.68,10.3-3.3,11.57-7.92.53-2,.37-4.69-.48-5s-1.36,2.9-4.34,4.45c-2.24,1.18-3.76.28-6.75,2A3.49,3.49,0,0,0,505.33,110.12Z"/><path class="cls-9" d="M505.55,103.65c3.85,1.69,10.3-3.29,11.57-7.91.53-2,.37-4.69-.48-4.95s-1.36,2.89-4.34,4.45c-2.25,1.18-3.77.28-6.75,2A3.48,3.48,0,0,0,505.55,103.65Z"/><path class="cls-9" d="M505.21,97.47c3.85,1.68,10.31-3.29,11.58-7.91.52-2,.36-4.69-.48-5s-1.37,2.89-4.34,4.45c-2.25,1.17-3.77.28-6.76,2A3.48,3.48,0,0,0,505.21,97.47Z"/><path class="cls-9" d="M505.43,91c3.85,1.68,10.3-3.29,11.57-7.92.53-2,.37-4.68-.48-4.94s-1.36,2.89-4.34,4.45c-2.24,1.17-3.76.27-6.75,2A3.48,3.48,0,0,0,505.43,91Z"/><path class="cls-9" d="M505.27,84.27c3.85,1.69,10.3-3.29,11.58-7.91.52-2,.36-4.69-.49-5S515,74.31,512,75.86c-2.24,1.18-3.76.28-6.75,2A3.48,3.48,0,0,0,505.27,84.27Z"/><path class="cls-9" d="M505.49,77.81c3.85,1.69,10.3-3.29,11.57-7.91.53-2,.37-4.69-.48-5s-1.36,2.89-4.34,4.45c-2.24,1.18-3.77.28-6.75,2A3.48,3.48,0,0,0,505.49,77.81Z"/><path class="cls-9" d="M505.16,71.63c3.84,1.68,10.3-3.29,11.57-7.91.53-2,.37-4.69-.48-4.95s-1.36,2.89-4.34,4.45c-2.25,1.17-3.77.28-6.75,2A3.48,3.48,0,0,0,505.16,71.63Z"/><path class="cls-9" d="M505.37,65.17c3.85,1.68,10.3-3.29,11.58-7.92.52-2,.36-4.68-.49-4.94s-1.36,2.89-4.34,4.45c-2.24,1.17-3.76.27-6.75,2A3.48,3.48,0,0,0,505.37,65.17Z"/><path class="cls-9" d="M505.33,58.6c3.85,1.68,10.3-3.29,11.57-7.92.53-2,.37-4.68-.48-4.94s-1.36,2.89-4.34,4.45c-2.24,1.17-3.76.27-6.75,2A3.48,3.48,0,0,0,505.33,58.6Z"/><path class="cls-9" d="M505.55,52.14c3.85,1.68,10.3-3.29,11.57-7.92.53-2,.37-4.68-.48-4.95s-1.36,2.9-4.34,4.46c-2.25,1.17-3.77.27-6.75,2A3.48,3.48,0,0,0,505.55,52.14Z"/><path class="cls-9" d="M505.21,46c3.85,1.68,10.31-3.29,11.58-7.92.52-2,.36-4.68-.48-4.95S514.94,36,512,37.55c-2.25,1.17-3.77.27-6.76,2A3.48,3.48,0,0,0,505.21,46Z"/><path class="cls-9" d="M505.43,39.5c3.85,1.68,10.3-3.3,11.57-7.92.53-2,.37-4.69-.48-4.95s-1.36,2.9-4.34,4.46c-2.24,1.17-3.76.27-6.75,2A3.49,3.49,0,0,0,505.43,39.5Z"/><path class="cls-9" d="M505.27,32.76c3.85,1.68,10.3-3.29,11.58-7.92.52-2,.36-4.68-.49-4.94S515,22.79,512,24.35c-2.24,1.17-3.76.27-6.75,2A3.48,3.48,0,0,0,505.27,32.76Z"/><path class="cls-9" d="M505.49,26.3c3.85,1.68,10.3-3.29,11.57-7.92.53-2,.37-4.68-.48-4.95s-1.36,2.9-4.34,4.46c-2.24,1.17-3.77.27-6.75,2A3.48,3.48,0,0,0,505.49,26.3Z"/><path class="cls-9" d="M505.16,20.12c3.84,1.68,10.3-3.29,11.57-7.92.53-2,.37-4.68-.48-4.95s-1.36,2.9-4.34,4.46c-2.25,1.17-3.77.27-6.75,2A3.48,3.48,0,0,0,505.16,20.12Z"/><path class="cls-9" d="M505.37,13.66c3.85,1.68,10.3-3.3,11.58-7.92.52-2,.36-4.69-.49-4.95s-1.36,2.9-4.34,4.46c-2.24,1.17-3.76.27-6.75,2A3.49,3.49,0,0,0,505.37,13.66Z"/><path class="cls-9" d="M30.21,323.61c3.29-.51,6.3-3.89,5.79-5.94-.29-1.16-1.55-1.31-1.93-3-.28-1.24.31-1.68,0-2.47-.61-1.58-3.84-2.26-6.27-1.49-3.49,1.1-4.69,5-4.82,5.44-.15.27-1.66,3-.48,4.95.68,1.12,1.95,1.47,3.86,2A8.76,8.76,0,0,0,30.21,323.61Z"/><path class="cls-9" d="M23.68,315.78c3.85,1.68,10.3-3.3,11.57-7.92.53-2,.37-4.69-.48-4.95s-1.36,2.9-4.34,4.45c-2.25,1.18-3.77.28-6.75,2A3.49,3.49,0,0,0,23.68,315.78Z"/><path class="cls-9" d="M23.9,309.31C27.74,311,34.2,306,35.47,301.4c.53-2,.37-4.69-.48-4.95s-1.36,2.89-4.34,4.45c-2.25,1.18-3.77.28-6.75,2A3.48,3.48,0,0,0,23.9,309.31Z"/><path class="cls-9" d="M23.56,303.13c3.85,1.68,10.3-3.29,11.58-7.91.52-2,.36-4.69-.49-5s-1.36,2.89-4.34,4.45c-2.24,1.18-3.76.28-6.75,2A3.48,3.48,0,0,0,23.56,303.13Z"/><path class="cls-9" d="M23.78,296.67c3.85,1.68,10.3-3.29,11.57-7.92.53-2,.37-4.68-.48-4.94s-1.36,2.89-4.34,4.45c-2.25,1.17-3.77.27-6.75,2A3.48,3.48,0,0,0,23.78,296.67Z"/><path class="cls-9" d="M23.62,289.94c3.85,1.68,10.3-3.3,11.57-7.92.53-2,.37-4.69-.48-4.95s-1.36,2.9-4.34,4.45c-2.24,1.18-3.77.28-6.75,2A3.49,3.49,0,0,0,23.62,289.94Z"/><path class="cls-9" d="M23.84,283.47c3.84,1.69,10.3-3.29,11.57-7.91.53-2,.37-4.69-.48-4.95s-1.36,2.89-4.34,4.45c-2.25,1.18-3.77.28-6.75,2A3.48,3.48,0,0,0,23.84,283.47Z"/><path class="cls-9" d="M23.5,277.29c3.85,1.68,10.3-3.29,11.58-7.91.52-2,.36-4.69-.49-4.95s-1.36,2.89-4.34,4.45c-2.24,1.18-3.76.28-6.75,2A3.48,3.48,0,0,0,23.5,277.29Z"/><path class="cls-9" d="M23.72,270.83c3.85,1.68,10.3-3.29,11.57-7.92.53-2,.37-4.68-.48-4.94s-1.36,2.89-4.34,4.45c-2.24,1.17-3.77.27-6.75,2A3.48,3.48,0,0,0,23.72,270.83Z"/><path class="cls-9" d="M23.53,264.43c3.85,1.68,10.3-3.29,11.57-7.92.53-2,.37-4.68-.48-4.94s-1.36,2.89-4.34,4.45c-2.24,1.17-3.77.27-6.75,2A3.48,3.48,0,0,0,23.53,264.43Z"/><path class="cls-9" d="M23.75,258c3.84,1.68,10.3-3.29,11.57-7.92.53-2,.37-4.68-.48-5s-1.36,2.9-4.34,4.46c-2.25,1.17-3.77.27-6.75,2A3.48,3.48,0,0,0,23.75,258Z"/><path class="cls-9" d="M23.41,251.79c3.85,1.68,10.3-3.29,11.58-7.92.52-2,.36-4.68-.49-5s-1.36,2.9-4.34,4.46c-2.24,1.17-3.76.27-6.75,2A3.48,3.48,0,0,0,23.41,251.79Z"/><path class="cls-9" d="M23.63,245.33c3.85,1.68,10.3-3.3,11.57-7.92.53-2,.37-4.69-.48-4.95s-1.36,2.9-4.34,4.46c-2.24,1.17-3.77.27-6.75,2A3.49,3.49,0,0,0,23.63,245.33Z"/><path class="cls-9" d="M23.47,238.59c3.85,1.68,10.3-3.29,11.57-7.92.53-2,.37-4.68-.48-4.94s-1.36,2.89-4.34,4.45c-2.24,1.17-3.76.27-6.75,2A3.48,3.48,0,0,0,23.47,238.59Z"/><path class="cls-9" d="M23.69,232.13c3.85,1.68,10.3-3.29,11.57-7.92.53-2,.37-4.68-.48-5s-1.36,2.9-4.34,4.46c-2.25,1.17-3.77.27-6.75,2A3.48,3.48,0,0,0,23.69,232.13Z"/><path class="cls-9" d="M23.35,226c3.85,1.68,10.31-3.29,11.58-7.92.52-2,.36-4.68-.48-4.95s-1.37,2.9-4.34,4.46c-2.25,1.17-3.77.27-6.76,2A3.48,3.48,0,0,0,23.35,226Z"/><path class="cls-9" d="M23.57,219.49c3.85,1.68,10.3-3.3,11.57-7.92.53-2,.37-4.69-.48-4.95s-1.36,2.9-4.34,4.46c-2.24,1.17-3.76.27-6.75,2A3.49,3.49,0,0,0,23.57,219.49Z"/><path class="cls-9" d="M23.53,212.92c3.85,1.68,10.3-3.29,11.57-7.92.53-2,.37-4.69-.48-4.95s-1.36,2.9-4.34,4.46c-2.24,1.17-3.77.27-6.75,2A3.49,3.49,0,0,0,23.53,212.92Z"/><path class="cls-9" d="M23.75,206.46c3.84,1.68,10.3-3.3,11.57-7.92.53-2,.37-4.69-.48-4.95s-1.36,2.9-4.34,4.45c-2.25,1.18-3.77.28-6.75,2A3.49,3.49,0,0,0,23.75,206.46Z"/><path class="cls-9" d="M23.41,200.27C27.26,202,33.71,197,35,192.36c.52-2,.36-4.69-.49-5s-1.36,2.9-4.34,4.45c-2.24,1.18-3.76.28-6.75,2A3.48,3.48,0,0,0,23.41,200.27Z"/><path class="cls-9" d="M23.63,193.81c3.85,1.68,10.3-3.29,11.57-7.91.53-2,.37-4.69-.48-5s-1.36,2.89-4.34,4.45c-2.24,1.18-3.77.28-6.75,2A3.48,3.48,0,0,0,23.63,193.81Z"/><path class="cls-9" d="M23.47,187.08c3.85,1.68,10.3-3.29,11.57-7.92.53-2,.37-4.69-.48-4.95s-1.36,2.9-4.34,4.46c-2.24,1.17-3.76.27-6.75,2A3.49,3.49,0,0,0,23.47,187.08Z"/><path class="cls-9" d="M23.69,180.62c3.85,1.68,10.3-3.3,11.57-7.92.53-2,.37-4.69-.48-4.95s-1.36,2.9-4.34,4.45c-2.25,1.18-3.77.28-6.75,2A3.49,3.49,0,0,0,23.69,180.62Z"/><path class="cls-9" d="M23.35,174.43c3.85,1.69,10.31-3.29,11.58-7.91.52-2,.36-4.69-.48-5s-1.37,2.9-4.34,4.45c-2.25,1.18-3.77.28-6.76,2A3.48,3.48,0,0,0,23.35,174.43Z"/><path class="cls-9" d="M23.57,168c3.85,1.68,10.3-3.29,11.57-7.91.53-2,.37-4.69-.48-4.95s-1.36,2.89-4.34,4.45c-2.24,1.18-3.76.28-6.75,2A3.48,3.48,0,0,0,23.57,168Z"/><path class="cls-9" d="M23.37,161.19c3.85,1.68,10.3-3.3,11.57-7.92.53-2,.37-4.69-.48-5s-1.36,2.9-4.34,4.46c-2.24,1.17-3.77.27-6.75,2A3.49,3.49,0,0,0,23.37,161.19Z"/><path class="cls-9" d="M23.59,154.73c3.84,1.68,10.3-3.3,11.57-7.92.53-2,.37-4.69-.48-4.95s-1.36,2.9-4.34,4.45c-2.25,1.18-3.77.28-6.75,2A3.49,3.49,0,0,0,23.59,154.73Z"/><path class="cls-9" d="M23.25,148.54c3.85,1.69,10.3-3.29,11.58-7.91.52-2,.36-4.69-.49-4.95S33,138.57,30,140.13c-2.24,1.18-3.76.28-6.75,2A3.48,3.48,0,0,0,23.25,148.54Z"/><path class="cls-9" d="M23.47,142.08c3.85,1.68,10.3-3.29,11.57-7.91.53-2,.37-4.69-.48-4.95s-1.36,2.89-4.34,4.45c-2.24,1.18-3.77.28-6.75,2A3.48,3.48,0,0,0,23.47,142.08Z"/><path class="cls-9" d="M23.31,135.35c3.85,1.68,10.3-3.3,11.58-7.92.52-2,.36-4.69-.49-5s-1.36,2.9-4.34,4.46c-2.24,1.17-3.76.27-6.75,2A3.49,3.49,0,0,0,23.31,135.35Z"/><path class="cls-9" d="M23.53,128.89c3.85,1.68,10.3-3.3,11.57-7.92.53-2,.37-4.69-.48-5s-1.36,2.9-4.34,4.45c-2.25,1.18-3.77.28-6.75,2A3.49,3.49,0,0,0,23.53,128.89Z"/><path class="cls-9" d="M23.19,122.7c3.85,1.69,10.31-3.29,11.58-7.91.52-2,.37-4.69-.48-5s-1.37,2.89-4.34,4.45c-2.25,1.18-3.77.28-6.76,2A3.48,3.48,0,0,0,23.19,122.7Z"/><path class="cls-9" d="M23.41,116.24c3.85,1.68,10.3-3.29,11.58-7.91.52-2,.36-4.69-.49-5s-1.36,2.89-4.34,4.45c-2.24,1.18-3.76.28-6.75,2A3.48,3.48,0,0,0,23.41,116.24Z"/><path class="cls-9" d="M23.22,109.84c3.85,1.68,10.3-3.29,11.57-7.91.53-2,.37-4.69-.48-5S33,99.87,30,101.43c-2.24,1.17-3.76.28-6.75,2A3.48,3.48,0,0,0,23.22,109.84Z"/><path class="cls-9" d="M23.44,103.38c3.85,1.68,10.3-3.29,11.57-7.92.53-2,.37-4.68-.48-4.94S33.17,93.41,30.19,95c-2.25,1.17-3.77.27-6.75,2A3.48,3.48,0,0,0,23.44,103.38Z"/><path class="cls-9" d="M23.1,97.2c3.85,1.68,10.31-3.29,11.58-7.92.52-2,.36-4.68-.48-5s-1.37,2.9-4.34,4.46c-2.25,1.17-3.77.27-6.76,2A3.48,3.48,0,0,0,23.1,97.2Z"/><path class="cls-9" d="M23.32,90.74c3.85,1.68,10.3-3.29,11.57-7.92.53-2,.37-4.68-.48-4.95s-1.36,2.9-4.34,4.46c-2.24,1.17-3.76.27-6.75,2A3.48,3.48,0,0,0,23.32,90.74Z"/><path class="cls-9" d="M23.16,84c3.85,1.68,10.3-3.29,11.58-7.91.52-2,.36-4.69-.49-5S32.89,74,29.91,75.59c-2.24,1.17-3.76.28-6.75,2A3.48,3.48,0,0,0,23.16,84Z"/><path class="cls-9" d="M23.38,77.54c3.85,1.68,10.3-3.29,11.57-7.92.53-2,.37-4.68-.48-4.94s-1.36,2.89-4.34,4.45c-2.24,1.17-3.77.27-6.75,2A3.48,3.48,0,0,0,23.38,77.54Z"/><path class="cls-9" d="M23.05,71.36c3.84,1.68,10.3-3.29,11.57-7.92.53-2,.37-4.68-.48-4.95S32.78,61.39,29.8,63c-2.25,1.17-3.77.27-6.75,2A3.48,3.48,0,0,0,23.05,71.36Z"/><path class="cls-9" d="M23.26,64.9c3.85,1.68,10.3-3.29,11.58-7.92.52-2,.36-4.69-.49-4.95S33,54.93,30,56.49c-2.24,1.17-3.76.27-6.75,2A3.48,3.48,0,0,0,23.26,64.9Z"/><path class="cls-9" d="M23.22,58.33C27.07,60,33.52,55,34.79,50.41c.53-2,.37-4.68-.48-4.95S33,48.36,30,49.92c-2.24,1.17-3.76.27-6.75,2A3.48,3.48,0,0,0,23.22,58.33Z"/><path class="cls-9" d="M23.44,51.87C27.29,53.55,33.74,48.57,35,44c.53-2,.37-4.69-.48-5s-1.36,2.9-4.34,4.46c-2.25,1.17-3.77.27-6.75,2A3.49,3.49,0,0,0,23.44,51.87Z"/><path class="cls-9" d="M23.1,45.69c3.85,1.68,10.31-3.3,11.58-7.92.52-2,.36-4.69-.48-5s-1.37,2.9-4.34,4.45c-2.25,1.18-3.77.28-6.76,2A3.49,3.49,0,0,0,23.1,45.69Z"/><path class="cls-9" d="M23.32,39.22c3.85,1.69,10.3-3.29,11.57-7.91.53-2,.37-4.69-.48-4.95s-1.36,2.9-4.34,4.45c-2.24,1.18-3.76.28-6.75,2A3.48,3.48,0,0,0,23.32,39.22Z"/><path class="cls-9" d="M23.16,32.49c3.85,1.68,10.3-3.29,11.58-7.92.52-2,.36-4.68-.49-4.95s-1.36,2.9-4.34,4.46c-2.24,1.17-3.76.27-6.75,2A3.48,3.48,0,0,0,23.16,32.49Z"/><path class="cls-9" d="M23.38,26c3.85,1.68,10.3-3.3,11.57-7.92.53-2,.37-4.69-.48-4.95s-1.36,2.9-4.34,4.46c-2.24,1.17-3.77.27-6.75,2A3.49,3.49,0,0,0,23.38,26Z"/><path class="cls-9" d="M23.05,19.85c3.84,1.68,10.3-3.3,11.57-7.92.53-2,.37-4.69-.48-4.95s-1.36,2.9-4.34,4.45c-2.25,1.18-3.77.28-6.75,2A3.49,3.49,0,0,0,23.05,19.85Z"/><path class="cls-9" d="M23.26,13.38c3.85,1.69,10.3-3.29,11.58-7.91.52-2,.36-4.69-.49-4.95S33,3.42,30,5c-2.24,1.18-3.76.28-6.75,2A3.48,3.48,0,0,0,23.26,13.38Z"/><path class="cls-9" d="M31.44,476c3.18-.5,6.1-3.84,5.61-5.88-.28-1.15-1.51-1.29-1.87-2.93-.27-1.23.3-1.66,0-2.45-.59-1.56-3.72-2.23-6.08-1.47-3.39,1.09-4.54,4.93-4.67,5.38-.15.27-1.61,3-.47,4.9.66,1.11,1.9,1.45,3.74,2A8.4,8.4,0,0,0,31.44,476Z"/><path class="cls-9" d="M28,405.15c-3.19.5-6.1,3.84-5.61,5.87.28,1.16,1.51,1.3,1.87,2.94.27,1.23-.3,1.66,0,2.45.59,1.56,3.72,2.23,6.08,1.47,3.38-1.09,4.54-4.93,4.67-5.39.15-.26,1.61-3,.47-4.89-.66-1.11-1.9-1.45-3.74-2A8.42,8.42,0,0,0,28,405.15Z"/><path class="cls-9" d="M25.1,468.23c3.78,1.66,10-3.28,11.22-7.83.51-2,.36-4.64-.46-4.9s-1.32,2.87-4.21,4.41c-2.18,1.16-3.65.27-6.55,2A3.48,3.48,0,0,0,25.1,468.23Z"/><path class="cls-9" d="M25.32,461.84c3.77,1.66,10-3.28,11.21-7.84.51-2,.36-4.63-.46-4.89s-1.32,2.86-4.21,4.4c-2.18,1.16-3.65.27-6.54,2A3.48,3.48,0,0,0,25.32,461.84Z"/><path class="cls-9" d="M25,455.72c3.78,1.66,10-3.28,11.22-7.83.51-2,.36-4.64-.47-4.9s-1.32,2.86-4.2,4.41c-2.18,1.16-3.66.27-6.55,2A3.48,3.48,0,0,0,25,455.72Z"/><path class="cls-9" d="M25.2,449.33c3.78,1.66,10-3.28,11.22-7.84.51-2,.36-4.64-.47-4.89s-1.32,2.86-4.2,4.4c-2.18,1.16-3.66.27-6.55,2A3.48,3.48,0,0,0,25.2,449.33Z"/><path class="cls-9" d="M25.05,442.66c3.77,1.66,10-3.28,11.22-7.83.51-2,.35-4.64-.47-4.9s-1.32,2.87-4.21,4.41c-2.17,1.16-3.65.27-6.54,2A3.48,3.48,0,0,0,25.05,442.66Z"/><path class="cls-9" d="M25.26,436.27c3.77,1.66,10-3.28,11.22-7.84.51-2,.35-4.64-.47-4.89s-1.32,2.86-4.21,4.4c-2.17,1.16-3.65.27-6.54,2A3.48,3.48,0,0,0,25.26,436.27Z"/><path class="cls-9" d="M24.93,430.15c3.78,1.66,10-3.28,11.22-7.83.51-2,.36-4.64-.46-4.9s-1.32,2.86-4.21,4.41c-2.18,1.16-3.65.27-6.55,1.95A3.48,3.48,0,0,0,24.93,430.15Z"/><path class="cls-9" d="M25.14,423.76c3.78,1.65,10-3.29,11.22-7.84.51-2,.36-4.64-.46-4.9s-1.32,2.87-4.21,4.41c-2.18,1.16-3.65.27-6.55,2A3.48,3.48,0,0,0,25.14,423.76Z"/><path class="cls-9" d="M513.28,475.18c3.28-.52,6.29-4,5.78-6.11-.29-1.2-1.55-1.34-1.93-3.06-.28-1.28.31-1.72,0-2.54-.61-1.63-3.84-2.32-6.27-1.53-3.49,1.13-4.68,5.13-4.82,5.6-.15.28-1.66,3.1-.48,5.1.68,1.15,2,1.5,3.86,2A8.52,8.52,0,0,0,513.28,475.18Z"/><path class="cls-9" d="M509.68,401.49c-3.29.52-6.3,4-5.79,6.11.29,1.2,1.55,1.35,1.93,3.06.28,1.28-.31,1.73,0,2.55.61,1.62,3.84,2.31,6.27,1.52,3.49-1.13,4.69-5.13,4.82-5.6.15-.27,1.66-3.1.48-5.09-.68-1.16-2-1.51-3.86-2A8.49,8.49,0,0,0,509.68,401.49Z"/><path class="cls-9" d="M506.74,467.12c3.9,1.73,10.32-3.43,11.57-8.15.53-2.1.37-4.82-.48-5.09s-1.36,3-4.34,4.58c-2.24,1.21-3.76.28-6.75,2A3.63,3.63,0,0,0,506.74,467.12Z"/><path class="cls-9" d="M507,460.47c3.9,1.73,10.31-3.43,11.57-8.15.53-2.1.37-4.83-.48-5.1s-1.36,3-4.34,4.59c-2.25,1.21-3.77.28-6.75,2A3.63,3.63,0,0,0,507,460.47Z"/><path class="cls-9" d="M506.62,454.11c3.9,1.73,10.32-3.44,11.58-8.16.52-2.09.36-4.82-.49-5.09s-1.36,3-4.34,4.58c-2.24,1.21-3.76.29-6.75,2A3.64,3.64,0,0,0,506.62,454.11Z"/><path class="cls-9" d="M506.84,447.45c3.9,1.73,10.32-3.43,11.57-8.15.53-2.1.37-4.82-.48-5.09s-1.36,3-4.34,4.58c-2.24,1.21-3.76.29-6.75,2A3.63,3.63,0,0,0,506.84,447.45Z"/><path class="cls-9" d="M506.68,440.52c3.9,1.73,10.32-3.44,11.58-8.15.52-2.1.36-4.83-.49-5.1s-1.36,3-4.34,4.59c-2.24,1.21-3.76.28-6.75,2A3.63,3.63,0,0,0,506.68,440.52Z"/><path class="cls-9" d="M506.9,433.86c3.9,1.74,10.31-3.43,11.57-8.15.53-2.09.37-4.82-.48-5.09s-1.36,3-4.34,4.58c-2.25,1.21-3.77.29-6.75,2A3.63,3.63,0,0,0,506.9,433.86Z"/><path class="cls-9" d="M506.57,427.5c3.89,1.73,10.31-3.43,11.57-8.15.53-2.1.37-4.83-.48-5.09s-1.37,3-4.34,4.58c-2.25,1.21-3.77.28-6.75,2A3.62,3.62,0,0,0,506.57,427.5Z"/><path class="cls-9" d="M506.78,420.85c3.9,1.73,10.32-3.44,11.58-8.15.52-2.1.36-4.83-.49-5.1s-1.36,3-4.34,4.59c-2.24,1.21-3.76.28-6.75,2A3.63,3.63,0,0,0,506.78,420.85Z"/></g></g></svg>