<?xml version="1.0" encoding="utf-8"?>
<!-- Generator: Adobe Illustrator 25.0.0, SVG Export Plug-In . SVG Version: 6.00 Build 0)  -->
<svg version="1.1"
	 id="svg5" inkscape:version="1.1.1 (26b7af14f2, 2022-01-19)" xmlns:inkscape="http://www.inkscape.org/namespaces/inkscape" xmlns:sodipodi="http://sodipodi.sourceforge.net/DTD/sodipodi-0.dtd" xmlns:svg="http://www.w3.org/2000/svg"
	 xmlns="http://www.w3.org/2000/svg" xmlns:xlink="http://www.w3.org/1999/xlink" x="0px" y="0px" viewBox="0 0 613.5 846.3"
	 style="enable-background:new 0 0 613.5 846.3;" xml:space="preserve">
<style type="text/css">
	.st0{fill:#E0B358;stroke:#B35B36;stroke-width:3.2976;}
	.st1{opacity:0.5;fill:#D98A49;enable-background:new    ;}
	.st2{opacity:0.5;fill:#CE8247;enable-background:new    ;}
	.st3{fill:#803300;}
	.st4{fill:#D0924A;}
</style>
<g id="g4984-3" transform="matrix(1,0,0,2.5750095,41.500433,-132.15452)">
	<path id="rect4387-5" class="st0" d="M19.8,61.7h494c31.2,0,56.5,11.2,56.5,25.1v261.8c0,13.8-25.3,25.1-56.5,25.1h-494
		c-31.2,0-56.5-11.2-56.5-25.1V86.8C-36.8,72.9-11.4,61.7,19.8,61.7z"/>
	<path id="path29925-6" class="st1" d="M-32.6,87.8l353.7,283.5L-41.4,278l0.3-166.5L-32.6,87.8z"/>
	<path id="path66480-2" class="st2" d="M183.3,58l93.7,0.2l-71.6,164.9L183.3,58z"/>
	<path id="path66480-7-9" class="st2" d="M571.8,175.4l-167.9,19.7l166.8,71.4L571.8,175.4z"/>
	<path id="rect4387-1-2-1" class="st3" d="M23.1,62.8h486.6c31.2,0,56.5,11.2,56.5,25.1v256.8c0,13.8-25.3,25.1-56.5,25.1H23.1
		c-31.2,0-56.5-11.2-56.5-25.1V87.9C-33.5,74-8.2,62.8,23.1,62.8z"/>
	<path id="rect4387-1-27" class="st4" d="M32.3,66.1h467.5c31.2,0,56.5,11.2,56.5,25.1v248.4c0,13.8-25.3,25.1-56.5,25.1H32.3
		c-31.2,0-56.5-11.2-56.5-25.1V91.1C-24.2,77.3,1.1,66.1,32.3,66.1z"/>
</g>
</svg>
