<?xml version="1.0" encoding="UTF-8" standalone="no"?>
<!-- Created with Inkscape (http://www.inkscape.org/) -->

<svg
   width="21.95956mm"
   height="19.390938mm"
   viewBox="0 0 21.959561 19.390938"
   version="1.1"
   id="svg5"
   inkscape:version="1.1.1 (eb90963e84, 2021-10-02)"
   sodipodi:docname="ic_ticket.svg"
   xmlns:inkscape="http://www.inkscape.org/namespaces/inkscape"
   xmlns:sodipodi="http://sodipodi.sourceforge.net/DTD/sodipodi-0.dtd"
   xmlns="http://www.w3.org/2000/svg"
   xmlns:svg="http://www.w3.org/2000/svg">
  <sodipodi:namedview
     id="namedview7"
     pagecolor="#ffffff"
     bordercolor="#666666"
     borderopacity="1.0"
     inkscape:pageshadow="2"
     inkscape:pageopacity="0.0"
     inkscape:pagecheckerboard="0"
     inkscape:document-units="mm"
     showgrid="false"
     inkscape:zoom="5.0600449"
     inkscape:cx="30.039259"
     inkscape:cy="25.296218"
     inkscape:window-width="1920"
     inkscape:window-height="1043"
     inkscape:window-x="0"
     inkscape:window-y="0"
     inkscape:window-maximized="1"
     inkscape:current-layer="g14774" />
  <defs
     id="defs2" />
  <g
     inkscape:label="Layer 1"
     inkscape:groupmode="layer"
     id="layer1"
     transform="translate(-87.234636,-93.282483)">
    <g
       id="g14774"
       transform="matrix(0.1655482,0,0,0.1655482,81.955197,85.930137)"
       style="stroke-width:6.04054">
      <g
         id="g14882"
         transform="matrix(0.58418712,-0.42786374,0.42786374,0.58418712,-3.2217113,84.841946)"
         style="stroke-width:8.34197">
        <path
           id="rect846"
           style="fill:#2ca02c;fill-rule:evenodd;stroke-width:8.34195"
           d="m 50.839844,247.16602 c -5.122363,0 -9.246094,4.12373 -9.246094,9.24609 v 69.38281 a 61.778836,67.510571 0 0 1 46.248047,65.33985 61.778836,67.510571 0 0 1 -46.248047,65.29492 v 65.57422 c 0,5.12236 4.123731,9.24609 9.246094,9.24609 H 531.55273 a 4.0136773,4.6592178 0 0 1 -0.39257,-2.00586 4.0136773,4.6592178 0 0 1 4.01367,-4.6582 4.0136773,4.6592178 0 0 1 4.01367,4.6582 4.0136773,4.6592178 0 0 1 -0.39453,2.00586 h 152.77539 c 5.12236,0 9.24609,-4.12373 9.24609,-9.24609 v -68.17579 a 61.778835,67.51057 0 0 1 -40.86718,-63.3457 61.778835,67.51057 0 0 1 40.86718,-63.34765 v -70.72266 c 0,-5.12236 -4.12373,-9.24609 -9.24609,-9.24609 H 541.51367 a 3.9459481,4.4472991 0 0 1 0.0156,0.39843 3.9459481,4.4472991 0 0 1 -3.94532,4.44727 3.9459481,4.4472991 0 0 1 -3.94531,-4.44727 3.9459481,4.4472991 0 0 1 0.0156,-0.39843 z m 486.513676,21.4375 a 4.0136763,4.6592168 0 0 1 4.01367,4.66015 4.0136763,4.6592168 0 0 1 -4.01367,4.65821 4.0136763,4.6592168 0 0 1 -4.01368,-4.65821 4.0136763,4.6592168 0 0 1 4.01368,-4.66015 z m -0.56055,24.35742 a 4.0136764,4.6592169 0 0 1 4.01367,4.6582 4.0136764,4.6592169 0 0 1 -4.01367,4.66016 4.0136764,4.6592169 0 0 1 -4.01367,-4.66016 4.0136764,4.6592169 0 0 1 4.01367,-4.6582 z m -0.43359,24.45703 a 4.0136765,4.659217 0 0 1 4.01367,4.66015 4.0136765,4.659217 0 0 1 -4.01367,4.65821 4.0136765,4.659217 0 0 1 -4.01368,-4.65821 4.0136765,4.659217 0 0 1 4.01368,-4.66015 z m -0.39649,27.88281 a 4.0136766,4.6592171 0 0 1 4.01367,4.66016 4.0136766,4.6592171 0 0 1 -4.01367,4.6582 4.0136766,4.6592171 0 0 1 -4.01367,-4.6582 4.0136766,4.6592171 0 0 1 4.01367,-4.66016 z m -0.55078,28.67578 a 4.0136767,4.6592172 0 0 1 4.01367,4.66016 4.0136767,4.6592172 0 0 1 -4.01367,4.6582 4.0136767,4.6592172 0 0 1 -4.01367,-4.6582 4.0136767,4.6592172 0 0 1 4.01367,-4.66016 z m 0.62695,27.1875 a 4.0136768,4.6592173 0 0 1 4.01367,4.65821 4.0136768,4.6592173 0 0 1 -4.01367,4.66015 4.0136768,4.6592173 0 0 1 -4.01367,-4.66015 4.0136768,4.6592173 0 0 1 4.01367,-4.65821 z m 0.21289,26.62696 a 4.0136769,4.6592174 0 0 1 4.01367,4.6582 4.0136769,4.6592174 0 0 1 -4.01367,4.66016 4.0136769,4.6592174 0 0 1 -4.01367,-4.66016 4.0136769,4.6592174 0 0 1 4.01367,-4.6582 z m 0.0195,26.43359 a 4.013677,4.6592175 0 0 1 4.01368,4.66016 4.013677,4.6592175 0 0 1 -4.01368,4.6582 4.013677,4.6592175 0 0 1 -4.01367,-4.6582 4.013677,4.6592175 0 0 1 4.01367,-4.66016 z m -0.26953,27.11719 a 4.0136771,4.6592176 0 0 1 4.01367,4.6582 4.0136771,4.6592176 0 0 1 -4.01367,4.66016 4.0136771,4.6592176 0 0 1 -4.01367,-4.66016 4.0136771,4.6592176 0 0 1 4.01367,-4.6582 z m -0.43945,21.94922 a 4.0136772,4.6592177 0 0 1 4.01367,4.66015 4.0136772,4.6592177 0 0 1 -4.01367,4.65821 4.0136772,4.6592177 0 0 1 -4.01367,-4.65821 4.0136772,4.6592177 0 0 1 4.01367,-4.66015 z"
           transform="scale(0.26458333)" />
        <rect
           style="fill:#ffffff;fill-rule:evenodd;stroke-width:2.20714"
           id="rect2248"
           width="97.247841"
           height="56.466434"
           x="32.203712"
           y="75.308113"
           rx="0"
           ry="0" />
        <text
           xml:space="preserve"
           style="font-style:normal;font-weight:normal;font-size:26.1127px;line-height:1.25;font-family:sans-serif;fill:#000000;fill-opacity:1;stroke:none;stroke-width:2.20714"
           x="43.631512"
           y="113.26343"
           id="text8184"><tspan
             sodipodi:role="line"
             id="tspan8182"
             style="font-style:normal;font-variant:normal;font-weight:bold;font-stretch:normal;font-size:26.1127px;font-family:sans-serif;-inkscape-font-specification:'sans-serif Bold';stroke-width:2.20714"
             x="43.631512"
             y="113.26343">Tiket</tspan></text>
      </g>
    </g>
  </g>
</svg>
