<svg xmlns="http://www.w3.org/2000/svg" viewBox="0 0 483.67 446.88"><defs><style>.cls-1{fill:#ed1c24;}</style></defs><g id="Layer_2" data-name="Layer 2"><g id="Layer_1-2" data-name="Layer 1"><path class="cls-1" d="M207.65,35.82c-4.9-22.44-46.2-34.73-75.57-35.75A121.21,121.21,0,0,0,75.9,11.82,123.85,123.85,0,0,0,31,48.58c-12.48,16-18.22,31.13-21.45,39.83S1.62,110,.33,127.73c-1.58,21.61,2.82,38.08,6.13,50A153.73,153.73,0,0,0,20.76,213a154.12,154.12,0,0,0,14.8,20.93c15.29,18.05,85.11,90.24,181.28,186.9q-2.55-26.8-5.11-53.62c-1.37-15.91-2.28-32.79-2.55-50.55a711.64,711.64,0,0,1,3.58-82.73c10.39-23.47,10.32-41.11,8.17-53.1-2.27-12.62-6.81-18.79-11.24-36.77a177.09,177.09,0,0,1-5.1-40.85l-55.66,22L202,87.39c1.42-7.22,3.25-17.76,4.6-30.64C207.86,44.94,208.35,39,207.65,35.82Z"/><path class="cls-1" d="M253.1,61.35c-4.79,15.72,3,22.42-2.56,40.85-4.47,14.72-13.87,24.92-20.93,31.15-.64,24.94,6,41,12.25,51.06,15.36,24.76,33.54,21.91,59.24,52.6,13.53,16.17,11.33,20.36,29.1,42.89a287,287,0,0,0,35.24,37.28c25.62-16.08,64.19-45.88,91.4-95.49,12.38-22.57,29.19-53.23,26.55-95-2.5-39.55-21-66.41-25-72-6.14-8.6-24.62-33.75-59.23-46.47A111,111,0,0,0,346,1.6c-19.82,2.52-33.32,10-44.93,16.34C279.21,30,259.3,41,253.1,61.35Z"/><path class="cls-1" d="M242.88,218.63a462.74,462.74,0,0,0-19.4,77.1,441.26,441.26,0,0,0-5.62,87.32A408.31,408.31,0,0,0,222,425.94l18.38,20.94,121.53-124.6a96.93,96.93,0,0,1-24-18.38c-12.14-12.82-12.34-20.33-25.53-38.3C306,257,297.71,245.7,284.25,236A102.36,102.36,0,0,0,242.88,218.63Z"/></g></g></svg>