<?xml version="1.0" encoding="utf-8"?>
<!-- Generator: Adobe Illustrator 25.0.0, SVG Export Plug-In . SVG Version: 6.00 Build 0)  -->
<svg version="1.1" id="Layer_1" xmlns="http://www.w3.org/2000/svg" xmlns:xlink="http://www.w3.org/1999/xlink" x="0px" y="0px"
	 viewBox="0 0 51.3 63.6" style="enable-background:new 0 0 51.3 63.6;" xml:space="preserve">
<style type="text/css">
	.st0{fill:#F17721;}
	.st1{fill:#EF3825;}
	.st2{fill:#FFC515;}
	.st3{fill:#F89820;}
	.st4{fill:#FDBE13;}
</style>
<g id="Layer_2-2">
	<path class="st0" d="M13.4,62c0,0-0.3,2.3,2.2,1.3s10-5,10-5l10.1,5.3l1.7-0.3c0,0,0.3,1,0.5-0.9s0-18.5,0-18.5l-12.2,0.2
		l-12.2,0.2C13.4,44.3,13.4,62,13.4,62z"/>
	<path class="st1" d="M25.6,58.1l10.5,5.5l1.2-0.2c0,0,0.4,0.2,0.5-0.9s0-18.5,0-18.5l-12.2,0.2V58.1z"/>
	<path class="st2" d="M5.6,12.9c-0.6-2,0.6-4.6,2.3-5.9c0.9-0.7,2.5-0.9,5.9-1.4c2.4-0.4,2.9-0.3,3.9-0.8c1.6-0.8,1.5-1.6,3.3-2.9
		c1.3-1,2.8-1.7,4.4-1.9c1.8,0,3.5,0.6,4.9,1.7c1.8,1.3,1.5,2.1,3,3s2.3,0.2,5.4,0.8c1.8,0.4,3.6,0.7,5.1,2.2c1,1,1.7,2.3,2,3.8
		c0.5,2.2-0.6,2.6-0.1,4.5c0.2,0.9,0.5,1,3.3,4.7c1.9,2.5,2.1,3,2.3,3.7c0.2,1.4,0,2.9-0.7,4.1c-0.5,0.9-0.7,0.8-2.2,2.6
		c-0.8,0.8-1.5,1.8-2.1,2.8c-0.9,1.8-0.2,2.5-0.7,5.1c-0.2,1.6-0.9,3.1-1.9,4.4c-1.5,1.3-3.4,2.1-5.4,2.2c-2.3,0.3-2.7-0.4-4.1,0.1
		c-1.8,0.7-1.7,2-3.8,3.5c-0.7,0.5-3.4,2.3-6.3,1.7c-1.5-0.5-2.9-1.3-4-2.5c-1.2-1.2-1.3-1.8-2.4-2.4c-0.9-0.5-1.9-0.5-3.7-0.5
		c-2.6,0-2.8,0.5-3.9,0.1c-1.4-0.6-2.6-1.6-3.3-3c-0.7-1.2-1.2-2.6-1.3-4c-0.3-2.2,0.4-2.5-0.1-4.1C5,33,4.2,31.8,3.2,30.8
		c-1.5-1.6-2.1-1.4-2.7-2.6c-0.5-1.3-0.6-2.8-0.2-4.1c0.2-1.3,0.6-2.4,1.4-3.5c1.2-1.5,2.1-1.1,3.6-2.9C5.7,17,6,16.1,5.9,15.3
		C6,14.5,5.9,13.6,5.6,12.9z"/>
	<circle class="st3" cx="26.1" cy="25.9" r="16.6"/>
	<path class="st4" d="M15.8,21c3.2-1.1,4.8-1.6,5.7-2.6c0.5-0.5,0.5-0.7,2.1-2.8c0.8-0.9,1-1.2,1.4-1.3c1.1-0.3,2.3,0.8,3.1,1.5
		c2.1,1.9,1.5,2.8,3,3.9s2.1,0.5,4.9,2c1.2,0.6,1.5,1,1.7,1.4c0.3,1-0.3,2-1.2,3.5c-1.2,2-1.7,1.8-2.1,3c-0.3,1.2-0.4,2.4-0.2,3.7
		c0.1,0.7,0.1,1.5-0.1,2.2c-0.2,0.7-0.6,1.4-1.2,1.8c-1.2,0.7-2.9,0-4.2-0.5s-1.5-1-2.5-1s-1,0.2-2.8,0.9c-2.9,1.1-3.8,0.9-4.1,0.9
		c-0.6-0.1-1.2-0.5-1.6-0.9c-0.5-0.6-0.5-1.5-0.4-3.3c0.1-3.5,0.1-3.6,0-4c-0.5-1.2-1.3-2.2-2.3-3c-0.9-0.9-1.3-1.1-1.5-1.8
		c-0.2-0.8-0.1-1.7,0.4-2.4C14.4,21.6,15.1,21.2,15.8,21z"/>
</g>
</svg>
